{
  "accessors": [
    {
      "bufferView": 1,
      "componentType": 5126,
      "count": 427,
      "max": [
        9.686300277709961,
        -12.069000244140625,
        -14.607500076293945
      ],
      "min": [
        0.31369999051094055,
        -12.930999755859375,
        -15.0
      ],
      "type": "VEC3"
    },
    {
      "bufferView": 1,
      "byteOffset": 5124,
      "componentType": 5126,
      "count": 427,
      "max": [
        0.9917175769805908,
        0.8502165675163269,
        -0.0651131272315979
      ],
      "min": [
        -0.9918245673179626,
        -0.8509236574172974,
        -1.0
      ],
      "type": "VEC3"
    },
    {
      "bufferView": 0,
      "componentType": 5125,
      "count": 1641,
      "type": "SCALAR"
    },
    {
      "bufferView": 1,
      "byteOffset": 10248,
      "componentType": 5126,
      "count": 1616,
      "max": [
        13.0,
        -7.0,
        -13.082500457763672
      ],
      "min": [
        -4.013999938964844,
        -13.853699684143066,
        -15.449999809265137
      ],
      "type": "VEC3"
    },
    {
      "bufferView": 1,
      "byteOffset": 29640,
      "componentType": 5126,
      "count": 1616,
      "max": [
        0.999915599822998,
        0.9999445080757141,
        1.0
      ],
      "min": [
        -0.9967820048332214,
        -0.9999518394470215,
        -1.0
      ],
      "type": "VEC3"
    },
    {
      "bufferView": 0,
      "byteOffset": 6564,
      "componentType": 5125,
      "count": 6732,
      "type": "SCALAR"
    },
    {
      "bufferView": 1,
      "byteOffset": 49032,
      "componentType": 5126,
      "count": 884,
      "max": [
        23.0,
        -0.0,
        10.0
      ],
      "min": [
        -12.0,
        -20.0,
        -15.0
      ],
      "type": "VEC3"
    },
    {
      "bufferView": 1,
      "byteOffset": 59640,
      "componentType": 5126,
      "count": 884,
      "max": [
        1.0,
        1.0,
        1.0
      ],
      "min": [
        -1.0,
        -1.0,
        -0.9999999403953552
      ],
      "type": "VEC3"
    },
    {
      "bufferView": 0,
      "byteOffset": 33492,
      "componentType": 5125,
      "count": 4467,
      "type": "SCALAR"
    },
    {
      "bufferView": 1,
      "byteOffset": 70248,
      "componentType": 5126,
      "count": 250,
      "max": [
        12.04699993133545,
        -4.0,
        -14.425999641418457
      ],
      "min": [
        10.42300033569336,
        -8.814000129699707,
        -14.72599983215332
      ],
      "type": "VEC3"
    },
    {
      "bufferView": 1,
      "byteOffset": 73248,
      "componentType": 5126,
      "count": 250,
      "max": [
        0.9999971389770508,
        0.9996047616004944,
        1.0
      ],
      "min": [
        -0.999904453754425,
        -0.9989005923271179,
        -1.0
      ],
      "type": "VEC3"
    },
    {
      "bufferView": 0,
      "byteOffset": 51360,
      "componentType": 5125,
      "count": 744,
      "type": "SCALAR"
    }
  ],
  "asset": {
    "extras": {
      "author": "qtsamo (https://sketchfab.com/qtsamo)",
      "license": "CC-BY-4.0 (http://creativecommons.org/licenses/by/4.0/)",
      "source": "https://sketchfab.com/3d-models/blueblob-8f62af6eb9424c9e97c0be7c98d026fa",
      "title": "blueblob"
    },
    "generator": "Sketchfab-11.91.0",
    "version": "2.0"
  },
  "bufferViews": [
    {
      "buffer": 0,
      "byteLength": 54336,
      "name": "floatBufferViews",
      "target": 34963
    },
    {
      "buffer": 0,
      "byteLength": 76248,
      "byteOffset": 54336,
      "byteStride": 12,
      "name": "floatBufferViews",
      "target": 34962
    }
  ],
  "buffers": [
    {
      "byteLength": 130584,
      "uri": "scene.bin"
    }
  ],
  "materials": [
    {
      "doubleSided": true,
      "name": "color_16448250",
      "pbrMetallicRoughness": {
        "baseColorFactor": [
          0.980392,
          0.980392,
          0.980392,
          1.0
        ],
        "metallicFactor": 0.0
      }
    },
    {
      "doubleSided": true,
      "name": "color_2829873",
      "pbrMetallicRoughness": {
        "baseColorFactor": [
          0.168627,
          0.180392,
          0.192157,
          1.0
        ],
        "metallicFactor": 0.0
      }
    },
    {
      "doubleSided": true,
      "name": "color_40919",
      "pbrMetallicRoughness": {
        "baseColorFactor": [
          0.0,
          0.623529,
          0.843137,
          1.0
        ],
        "metallicFactor": 0.0
      }
    },
    {
      "doubleSided": true,
      "name": "color_8768998",
      "pbrMetallicRoughness": {
        "baseColorFactor": [
          0.521569,
          0.803922,
          0.901961,
          1.0
        ],
        "metallicFactor": 0.0
      }
    }
  ],
  "meshes": [
    {
      "name": "Object_0",
      "primitives": [
        {
          "attributes": {
            "NORMAL": 1,
            "POSITION": 0
          },
          "indices": 2,
          "material": 0,
          "mode": 4
        }
      ]
    },
    {
      "name": "Object_1",
      "primitives": [
        {
          "attributes": {
            "NORMAL": 4,
            "POSITION": 3
          },
          "indices": 5,
          "material": 1,
          "mode": 4
        }
      ]
    },
    {
      "name": "Object_2",
      "primitives": [
        {
          "attributes": {
            "NORMAL": 7,
            "POSITION": 6
          },
          "indices": 8,
          "material": 2,
          "mode": 4
        }
      ]
    },
    {
      "name": "Object_3",
      "primitives": [
        {
          "attributes": {
            "NORMAL": 10,
            "POSITION": 9
          },
          "indices": 11,
          "material": 3,
          "mode": 4
        }
      ]
    }
  ],
  "nodes": [
    {
      "children": [
        1
      ],
      "matrix": [
        1.0,
        -4.8033446892643715e-32,
        1.6081226229577292e-16,
        0.0,
        1.232595164407831e-32,
        -1.0,
        -4.440892098500626e-16,
        0.0,
        1.6081226229577292e-16,
        4.440892098500626e-16,
        -1.0,
        0.0,
        0.0,
        -12.725000381469728,
        7.275000095367429,
        1.0
      ],
      "name": "Sketchfab_model"
    },
    {
      "children": [
        2,
        3,
        4,
        5
      ],
      "name": "tinker.obj.cleaner.materialmerger.gles"
    },
    {
      "mesh": 0,
      "name": "Object_2"
    },
    {
      "mesh": 1,
      "name": "Object_3"
    },
    {
      "mesh": 2,
      "name": "Object_4"
    },
    {
      "mesh": 3,
      "name": "Object_5"
    }
  ],
  "scene": 0,
  "scenes": [
    {
      "name": "Sketchfab_Scene",
      "nodes": [
        0
      ]
    }
  ]
}
